<svg width="114" height="42" viewBox="0 0 114 42" fill="none" xmlns="http://www.w3.org/2000/svg">
<g id="Group 12">
<path id="Path 30" d="M77.1569 26.9242C76.7896 27.3198 76.3736 27.6672 75.9189 27.9582C75.4912 28.2303 75.023 28.4328 74.5319 28.5582C74.0011 28.6873 73.4562 28.7498 72.9099 28.7442C71.9308 28.7508 70.9645 28.5213 70.0929 28.0752C69.1851 27.592 68.4496 26.8391 67.9879 25.9202C67.4151 24.7506 67.1403 23.4576 67.1879 22.1562C67.1652 21.1332 67.3247 20.1143 67.6589 19.1472C67.9277 18.3765 68.363 17.6745 68.9339 17.0912C69.4512 16.5751 70.0775 16.1815 70.7669 15.9392C71.4555 15.6994 72.1797 15.578 72.9089 15.5802C73.7157 15.5617 74.518 15.7059 75.2679 16.0042C75.99 16.328 76.6339 16.8034 77.1559 17.3982L75.3739 19.1242C75.0561 18.7424 74.6698 18.4232 74.2349 18.1832C73.8204 17.9908 73.3667 17.8977 72.9099 17.9112C72.4511 17.8933 71.9949 17.9875 71.5807 18.1856C71.1666 18.3837 70.8069 18.6798 70.5329 19.0482C70.2463 19.4155 70.0454 19.8423 69.9449 20.2972C69.8206 20.9115 69.7646 21.5376 69.7779 22.1642C69.6878 23.2651 69.9527 24.3659 70.5339 25.3052C70.8078 25.6738 71.1674 25.9701 71.5816 26.1683C71.9958 26.3666 72.452 26.461 72.9109 26.4432C73.3644 26.4542 73.8141 26.3586 74.2239 26.1642C74.6617 25.9254 75.0522 25.6085 75.3759 25.2292L77.1569 26.9242Z" fill="#606060"/>
<path id="Path 31" d="M89.8584 28.5942H87.3324V27.3072C86.8961 27.7688 86.3663 28.1319 85.7784 28.3722C85.1839 28.6193 84.5462 28.7457 83.9024 28.7442C82.7332 28.7916 81.5931 28.373 80.7324 27.5802C80.2758 27.1429 79.9326 26.6009 79.7324 26.0012C79.5277 25.3379 79.4295 24.6463 79.4414 23.9522V15.7422H82.0294V23.5682C81.9995 23.957 82.0477 24.3478 82.171 24.7177C82.2943 25.0876 82.4902 25.4291 82.7474 25.7222C82.9918 25.9622 83.2827 26.1497 83.6022 26.2732C83.9217 26.3966 84.2631 26.4535 84.6054 26.4402C84.9564 26.4529 85.3064 26.3954 85.6349 26.2711C85.9634 26.1468 86.2638 25.9581 86.5184 25.7162C86.7837 25.4286 86.9871 25.0895 87.1159 24.72C87.2447 24.3505 87.2963 23.9585 87.2674 23.5682V15.7412H89.8554L89.8584 28.5942Z" fill="#606060"/>
<path id="Path 32" d="M102.424 16.8129L100.467 18.7629C100.222 18.497 99.9335 18.2751 99.6135 18.1069C99.2778 17.9617 98.9139 17.8934 98.5485 17.9069C98.0963 17.9042 97.6524 18.0286 97.2675 18.2659C96.8699 18.5106 96.5467 18.8591 96.3325 19.2739C96.0926 19.7422 95.9734 20.2629 95.9855 20.7889V28.5889H93.3975V15.7409H95.9355V17.1409C96.3038 16.6436 96.7972 16.2527 97.3655 16.0079C97.989 15.7236 98.6672 15.5789 99.3525 15.5839C99.9243 15.5729 100.493 15.6678 101.03 15.8639C101.557 16.0797 102.031 16.4041 102.423 16.8159" fill="#606060"/>
<path id="Path 33" d="M113.626 22.9108H105.28C105.262 23.5732 105.393 24.2312 105.664 24.8358C105.902 25.349 106.288 25.7799 106.772 26.0738C107.316 26.3827 107.935 26.535 108.561 26.5138C109.149 26.5351 109.735 26.4329 110.282 26.2138C110.802 25.9567 111.276 25.6131 111.682 25.1978L113.329 26.7338C112.718 27.3702 111.995 27.8885 111.197 28.2628C110.343 28.606 109.427 28.7684 108.507 28.7398C107.726 28.747 106.949 28.6258 106.207 28.3808C105.513 28.1496 104.882 27.7596 104.366 27.2418C103.81 26.6629 103.394 25.9639 103.151 25.1988C102.84 24.2141 102.694 23.1851 102.717 22.1528C102.685 20.9376 102.915 19.7298 103.393 18.6118C103.791 17.6901 104.452 16.9062 105.293 16.3578C106.156 15.8252 107.155 15.5543 108.169 15.5778C109.199 15.5522 110.214 15.8229 111.095 16.3578C111.926 16.8836 112.581 17.6445 112.979 18.5438C113.425 19.5595 113.645 20.6598 113.624 21.7688L113.626 22.9108ZM111.063 21.1108C111.052 20.5128 110.935 19.9215 110.716 19.3648C110.518 18.88 110.18 18.4657 109.744 18.1758C109.279 17.8716 108.733 17.7161 108.178 17.7298C107.623 17.7185 107.077 17.8739 106.612 18.1758C106.168 18.4639 105.819 18.8779 105.612 19.3648C105.509 19.5887 105.432 19.8236 105.383 20.0648C105.345 20.2648 105.31 20.6135 105.278 21.1108H111.063Z" fill="#606060"/>
<path id="Path 34" d="M64.9871 22.9108H56.6411C56.6229 23.5732 56.7542 24.2312 57.0251 24.8358C57.2638 25.349 57.6494 25.7799 58.1331 26.0738C58.6774 26.3827 59.2966 26.535 59.9221 26.5138C60.5104 26.5351 61.0967 26.4329 61.6431 26.2138C62.1637 25.9565 62.6371 25.613 63.0431 25.1978L64.6901 26.7338C64.0796 27.3703 63.3568 27.8887 62.5581 28.2628C61.704 28.606 60.7881 28.7684 59.8681 28.7398C59.0869 28.747 58.3099 28.6258 57.5681 28.3808C56.8742 28.1496 56.2438 27.7596 55.7271 27.2418C55.171 26.6629 54.7553 25.9639 54.5121 25.1988C54.2015 24.2141 54.0549 23.1851 54.0781 22.1528C54.0462 20.9376 54.2767 19.7298 54.7541 18.6118C55.1523 17.6902 55.8131 16.9062 56.6541 16.3578C57.5172 15.8252 58.5162 15.5543 59.5301 15.5778C60.56 15.5522 61.5756 15.8229 62.4561 16.3578C63.287 16.8835 63.9428 17.6444 64.3401 18.5438C64.786 19.5595 65.0061 20.6598 64.9851 21.7688L64.9871 22.9108ZM62.4241 21.1108C62.4135 20.5128 62.296 19.9215 62.0771 19.3648C61.8797 18.88 61.541 18.4657 61.1051 18.1758C60.6405 17.8716 60.0943 17.7161 59.5391 17.7298C58.9842 17.7185 58.4387 17.8739 57.9731 18.1758C57.529 18.4639 57.1808 18.8779 56.9731 19.3648C56.8704 19.5887 56.7936 19.8236 56.7441 20.0648C56.7068 20.2648 56.6718 20.6135 56.6391 21.1108H62.4241Z" fill="#606060"/>
<path id="Path 35" d="M51.2963 30.1849L47.7883 24.1089L44.2803 30.1849H51.2963Z" fill="#606060"/>
<path id="Path 36" d="M48.8447 7.63095L44.2627 15.567L47.7867 21.667L55.8927 7.62695L48.8447 7.63095Z" fill="#606060"/>
<path id="Path 37" d="M48.8623 38.1532L44.2803 30.2172L47.8043 24.1172L55.9103 38.1572L48.8623 38.1532Z" fill="#606060"/>
<path id="Path 38" d="M10.6008 28.4242H8.02779V27.1142C7.58348 27.5836 7.04414 27.9529 6.44579 28.1972C5.84088 28.4488 5.19191 28.5773 4.53679 28.5752C3.34692 28.6233 2.18665 28.1971 1.31079 27.3902C0.849274 26.9444 0.502712 26.3933 0.300786 25.7842C0.0912056 25.1091 -0.0100505 24.4051 0.000786162 23.6982V15.3442H2.63479V23.3082C2.60439 23.7039 2.6534 24.1016 2.77894 24.4781C2.90447 24.8545 3.104 25.202 3.36579 25.5002C3.61446 25.7446 3.91051 25.9355 4.23571 26.0612C4.56091 26.187 4.9084 26.2448 5.25679 26.2312C5.61354 26.2438 5.96922 26.1851 6.30301 26.0585C6.63681 25.932 6.94202 25.7401 7.20079 25.4942C7.47116 25.2017 7.6785 24.8567 7.80993 24.4806C7.94136 24.1046 7.99407 23.7055 7.96479 23.3082V15.3442H10.6008V28.4242Z" fill="black"/>
<path id="Path 39" d="M24.82 28.4241H22.185V20.4571C22.2048 19.8917 22.086 19.3301 21.839 18.8211C21.6332 18.4104 21.3051 18.0736 20.9 17.8571C20.4822 17.6468 20.0196 17.5411 19.552 17.5491C19.1948 17.5361 18.8386 17.5945 18.5043 17.7209C18.1699 17.8473 17.8642 18.0391 17.605 18.2851C17.3358 18.5753 17.1292 18.9179 16.9981 19.2914C16.867 19.6649 16.8142 20.0613 16.843 20.4561V28.4231H14.21V15.3441H16.793V16.6631C17.2288 16.183 17.7671 15.807 18.368 15.5631C18.9699 15.3117 19.6157 15.1822 20.268 15.1821C20.8587 15.1557 21.4486 15.2483 22.0028 15.4545C22.557 15.6606 23.0641 15.9761 23.494 16.3821C23.9568 16.8708 24.3134 17.4501 24.5411 18.0835C24.7688 18.7169 24.8627 19.3906 24.817 20.0621L24.82 28.4241Z" fill="black"/>
<path id="Rectangle 18" d="M30.927 15.3442H28.293V28.4242H30.927V15.3442Z" fill="black"/>
<path id="Path 40" d="M29.4065 10.9941H26.7725L28.2935 13.6281H30.9275L29.4065 10.9941Z" fill="black"/>
<path id="Path 41" d="M29.0024 42H36.0514L47.0824 22.891L43.5584 16.791L33.8664 0H26.8174L40.0344 22.892L29.0024 42Z" fill="black"/>
<path id="Path 42" d="M40.3884 30.5222L44.7934 22.8912L40.3884 15.2612L35.9834 22.8912L40.3884 30.5222Z" fill="#E1251B"/>
</g>
</svg>
