<svg width="2067" height="1401" viewBox="0 0 2067 1401" fill="none" xmlns="http://www.w3.org/2000/svg">
<path d="M1250.05 1179.44L1017.19 991.366L1063.64 695.664L1342.94 588.037L1575.81 776.112L1529.36 1071.81L1250.05 1179.44Z" fill="url(#paint0_linear_8572_37841)" fill-opacity="0.05"/>
<path d="M1053.3 1145.83L391.777 1213.75L2.20068 674.811L274.144 67.9609L935.663 0.0453402L1325.24 538.98L1053.3 1145.83Z" fill="url(#paint1_linear_8572_37841)"/>
<path d="M1592.37 1301.21L1312.37 1041.81L1397.02 669.619L1761.67 556.83L2041.67 816.233L1957.03 1188.42L1592.37 1301.21Z" fill="url(#paint2_linear_8572_37841)"/>
<path d="M1604.3 1219.7L1686.04 1000.17L1917.04 961.199L2066.28 1141.76L1984.54 1361.29L1753.54 1400.26L1604.3 1219.7Z" stroke="#FFF5E1"/>
<path d="M57.8724 1263.56L1.06947 1036.29L169.487 873.466L394.707 937.906L451.51 1165.17L283.093 1328L57.8724 1263.56Z" stroke="#EBEDF9"/>
<defs>
<linearGradient id="paint0_linear_8572_37841" x1="1434.88" y1="1135.39" x2="1180.64" y2="624.371" gradientUnits="userSpaceOnUse">
<stop stop-color="#3C49BA"/>
<stop offset="1" stop-color="#171C46"/>
</linearGradient>
<linearGradient id="paint1_linear_8572_37841" x1="401.611" y1="69.2985" x2="1138.65" y2="-99.1877" gradientUnits="userSpaceOnUse">
<stop stop-color="#171C46"/>
<stop offset="1" stop-color="#232B6D"/>
</linearGradient>
<linearGradient id="paint2_linear_8572_37841" x1="2023.96" y1="805.956" x2="2475.58" y2="688.211" gradientUnits="userSpaceOnUse">
<stop stop-color="#FFD57B"/>
<stop offset="1" stop-color="#FFB415"/>
</linearGradient>
</defs>
</svg>
