<svg width="1974" height="1441" viewBox="0 0 1974 1441" fill="none" xmlns="http://www.w3.org/2000/svg">
<g opacity="0.4" filter="url(#filter0_f_9870_50440)">
<path d="M1597.51 137.31L1854.82 444.424L1717.51 820.824L1322.89 890.11L1065.57 582.996L1202.88 206.596L1597.51 137.31Z" fill="url(#paint0_linear_9870_50440)"/>
</g>
<g opacity="0.8" filter="url(#filter1_f_9870_50440)">
<path d="M154.135 1100.06L301.453 1141.17L339.514 1289.3L230.256 1396.33L82.9372 1355.22L44.8766 1207.09L154.135 1100.06Z" fill="url(#paint1_linear_9870_50440)"/>
</g>
<g opacity="0.9" filter="url(#filter2_f_9870_50440)">
<path d="M380.277 1092.16L339.848 1138.04L279.899 1125.97L260.379 1068.02L300.809 1022.13L360.758 1034.21L380.277 1092.16Z" fill="url(#paint2_linear_9870_50440)"/>
</g>
<g opacity="0.9" filter="url(#filter3_f_9870_50440)">
<path d="M1189.09 761.784L1157.48 733.142L1166.48 691.444L1207.09 678.388L1238.7 707.03L1229.7 748.729L1189.09 761.784Z" fill="url(#paint3_linear_9870_50440)"/>
</g>
<defs>
<filter id="filter0_f_9870_50440" x="1021.57" y="93.3105" width="877.253" height="840.799" filterUnits="userSpaceOnUse" color-interpolation-filters="sRGB">
<feFlood flood-opacity="0" result="BackgroundImageFix"/>
<feBlend mode="normal" in="SourceGraphic" in2="BackgroundImageFix" result="shape"/>
<feGaussianBlur stdDeviation="22" result="effect1_foregroundBlur_9870_50440"/>
</filter>
<filter id="filter1_f_9870_50440" x="0.876953" y="1056.06" width="382.637" height="384.27" filterUnits="userSpaceOnUse" color-interpolation-filters="sRGB">
<feFlood flood-opacity="0" result="BackgroundImageFix"/>
<feBlend mode="normal" in="SourceGraphic" in2="BackgroundImageFix" result="shape"/>
<feGaussianBlur stdDeviation="22" result="effect1_foregroundBlur_9870_50440"/>
</filter>
<filter id="filter2_f_9870_50440" x="246.38" y="1008.13" width="147.897" height="143.906" filterUnits="userSpaceOnUse" color-interpolation-filters="sRGB">
<feFlood flood-opacity="0" result="BackgroundImageFix"/>
<feBlend mode="normal" in="SourceGraphic" in2="BackgroundImageFix" result="shape"/>
<feGaussianBlur stdDeviation="7" result="effect1_foregroundBlur_9870_50440"/>
</filter>
<filter id="filter3_f_9870_50440" x="1154.48" y="675.389" width="87.2227" height="89.3965" filterUnits="userSpaceOnUse" color-interpolation-filters="sRGB">
<feFlood flood-opacity="0" result="BackgroundImageFix"/>
<feBlend mode="normal" in="SourceGraphic" in2="BackgroundImageFix" result="shape"/>
<feGaussianBlur stdDeviation="1.5" result="effect1_foregroundBlur_9870_50440"/>
</filter>
<linearGradient id="paint0_linear_9870_50440" x1="1085.38" y1="372.073" x2="1838.18" y2="646.694" gradientUnits="userSpaceOnUse">
<stop stop-color="#EC5970"/>
<stop offset="1" stop-color="#F47C0C"/>
</linearGradient>
<linearGradient id="paint1_linear_9870_50440" x1="43.6231" y1="1284.55" x2="339.892" y2="1208.43" gradientUnits="userSpaceOnUse">
<stop stop-color="#EC5970"/>
<stop offset="1" stop-color="#F47C0C"/>
</linearGradient>
<linearGradient id="paint2_linear_9870_50440" x1="333.09" y1="1020.28" x2="308.945" y2="1140.18" gradientUnits="userSpaceOnUse">
<stop stop-color="#EC5970"/>
<stop offset="1" stop-color="#F47C0C"/>
</linearGradient>
<linearGradient id="paint3_linear_9870_50440" x1="1239.68" y1="729.564" x2="1156.29" y2="711.567" gradientUnits="userSpaceOnUse">
<stop stop-color="#EC5970"/>
<stop offset="1" stop-color="#F47C0C"/>
</linearGradient>
</defs>
</svg>
