<svg width="758" height="321" viewBox="0 0 758 321" fill="none" xmlns="http://www.w3.org/2000/svg">
<path d="M6.99987 196L71.4062 196C97.6958 196 119 212.213 119 232.221L119 256" stroke="#ABB1E4" stroke-width="0.5" stroke-miterlimit="10" stroke-dasharray="5 5"/>
<path d="M6.99988 128L71.4062 128C97.6958 128 119 112.057 119 92.3826L119 69" stroke="#ABB1E4" stroke-width="0.5" stroke-miterlimit="10" stroke-dasharray="5 5"/>
<path d="M12.0001 177L209.346 177C473.323 177 660 235.672 660 321" stroke="#ABB1E4" stroke-width="0.5" stroke-miterlimit="10" stroke-dasharray="5 5"/>
<path d="M12.0001 147L209.259 147C473.12 147 657 85.5457 657 -1.63401e-06" stroke="#ABB1E4" stroke-width="0.5" stroke-miterlimit="10" stroke-dasharray="5 5"/>
<path d="M0.000115701 185L134.869 185C320.513 185 471 236.486 471 300" stroke="white" stroke-width="0.5" stroke-miterlimit="10" stroke-dasharray="5 5"/>
<path d="M0.00012207 139L134.869 139C320.513 139 471 87.5141 471 24" stroke="white" stroke-width="0.5" stroke-miterlimit="10" stroke-dasharray="5 5"/>
<path d="M88.301 162.179L92.8216 162.179" stroke="#D1D5F0" stroke-width="0.5" stroke-miterlimit="10" stroke-dasharray="5 5"/>
<path d="M16.0001 162L427 162" stroke="#ABB1E4" stroke-width="0.5" stroke-miterlimit="10" stroke-dasharray="5 5"/>
<path d="M430.897 162.179L435.418 162.179" stroke="#D1D5F0" stroke-width="0.5" stroke-miterlimit="10" stroke-dasharray="5 5"/>
<path d="M11 170L397.143 170C555.321 170 690.047 200.421 741 243" stroke="white" stroke-width="0.5" stroke-miterlimit="10" stroke-dasharray="5 5"/>
<path d="M11 155L396.798 155C577.727 155 727.933 117.385 757 68" stroke="white" stroke-width="0.5" stroke-miterlimit="10" stroke-dasharray="5 5"/>
</svg>
