<svg width="491" height="577" viewBox="0 0 491 577" fill="none" xmlns="http://www.w3.org/2000/svg">
<path d="M191.39 60L191.39 121.003C191.39 145.903 166.677 166.082 136.182 166.082L99.9375 166.082" stroke="#ABB1E4" stroke-width="0.5" stroke-miterlimit="10" stroke-dasharray="5 5"/>
<path d="M295.037 60L295.037 121.003C295.037 145.903 319.338 166.082 349.325 166.082L384.966 166.082" stroke="#ABB1E4" stroke-width="0.5" stroke-miterlimit="10" stroke-dasharray="5 5"/>
<path d="M220.351 58L220.351 97.2839C220.351 347.312 130.923 524.126 0.864742 524.126" stroke="#ABB1E4" stroke-width="0.5" stroke-miterlimit="10" stroke-dasharray="5 5"/>
<path d="M266.077 21L266.077 97.2019C266.077 347.121 359.746 521.284 490.136 521.284" stroke="#ABB1E4" stroke-width="0.5" stroke-miterlimit="10" stroke-dasharray="5 5"/>
<path d="M208.157 26.7421C208.157 202.577 129.681 345.112 32.8726 345.112" stroke="white" stroke-width="0.5" stroke-miterlimit="10" stroke-dasharray="5 5"/>
<path d="M278.271 26.7421C278.271 202.577 356.746 345.112 453.555 345.112" stroke="white" stroke-width="0.5" stroke-miterlimit="10" stroke-dasharray="5 5"/>
<path d="M242.865 54L242.865 57" stroke="#D1D5F0" stroke-width="0.5" stroke-miterlimit="10" stroke-dasharray="5 5"/>
<path d="M243.865 0L243.865 305" stroke="#ABB1E4" stroke-width="0.5" stroke-miterlimit="10" stroke-dasharray="5 5"/>
<path d="M242.865 308L242.865 311" stroke="#D1D5F0" stroke-width="0.5" stroke-miterlimit="10" stroke-dasharray="5 5"/>
<path d="M230.865 29.5L230.865 254.412C230.865 395.907 184.607 516.422 119.865 562" stroke="white" stroke-width="0.5" stroke-miterlimit="10" stroke-dasharray="5 5"/>
<path d="M253.865 30L253.865 253.943C253.865 415.712 311.368 550.011 386.865 576" stroke="white" stroke-width="0.5" stroke-miterlimit="10" stroke-dasharray="5 5"/>
</svg>
