<svg width="1752" height="1597" viewBox="0 0 1752 1597" fill="none" xmlns="http://www.w3.org/2000/svg">
<g opacity="0.2" filter="url(#filter0_f_8246_55135)">
<path d="M881.693 444.806L1196.75 820.834L1028.63 1281.7L545.45 1366.53L230.393 990.5L398.515 529.639L881.693 444.806Z" fill="#FFD57B"/>
</g>
<g opacity="0.2" filter="url(#filter1_f_8246_55135)">
<path d="M1341.24 230.896L1521.29 436.519L1433.23 695.255L1165.14 748.368L985.09 542.745L1073.14 284.008L1341.24 230.896Z" fill="#3C49BA"/>
</g>
<path d="M1174.63 881.329L1343.17 704.353L1580.71 761.827L1649.7 996.277L1481.16 1173.25L1243.63 1115.78L1174.63 881.329Z" stroke="white" stroke-width="2"/>
<path d="M1387.14 182.334L1578.79 181.051L1675.72 346.382L1581.01 512.996L1389.36 514.279L1292.43 348.948L1387.14 182.334Z" stroke="white" stroke-width="2"/>
<path d="M160.728 472.423L308.611 429.041L420.122 535.421L383.75 685.183L235.867 728.564L124.356 622.184L160.728 472.423Z" stroke="white" stroke-width="2"/>
<path d="M152.341 280.404L320.884 103.428L558.42 160.902L627.415 395.352L458.873 572.328L221.336 514.854L152.341 280.404Z" stroke="white" stroke-width="2"/>
<defs>
<filter id="filter0_f_8246_55135" x="0.394531" y="214.806" width="1426.36" height="1381.72" filterUnits="userSpaceOnUse" color-interpolation-filters="sRGB">
<feFlood flood-opacity="0" result="BackgroundImageFix"/>
<feBlend mode="normal" in="SourceGraphic" in2="BackgroundImageFix" result="shape"/>
<feGaussianBlur stdDeviation="115" result="effect1_foregroundBlur_8246_55135"/>
</filter>
<filter id="filter1_f_8246_55135" x="755.09" y="0.895508" width="996.195" height="977.472" filterUnits="userSpaceOnUse" color-interpolation-filters="sRGB">
<feFlood flood-opacity="0" result="BackgroundImageFix"/>
<feBlend mode="normal" in="SourceGraphic" in2="BackgroundImageFix" result="shape"/>
<feGaussianBlur stdDeviation="115" result="effect1_foregroundBlur_8246_55135"/>
</filter>
</defs>
</svg>
