<svg width="70" height="70" viewBox="0 0 70 70" fill="none" xmlns="http://www.w3.org/2000/svg">
<g clip-path="url(#clip0_8466_84547)">
<rect width="100" height="100" fill="white"/>
<path d="M60.0837 7H9.91706C7.09518 7 4.90039 9.28594 4.90039 11.9875V45.2375C4.90039 48.043 7.09518 50.225 9.91706 50.225H29.9837L28.3115 55.2125H20.7865C19.3233 55.2125 18.2782 56.3555 18.2782 57.7063C18.2782 59.1609 19.3233 60.2 20.7865 60.2H49.2143C50.573 60.2 51.7226 59.1609 51.7226 57.7063C51.7226 56.3555 50.573 55.2125 49.2143 55.2125H41.6893L40.0171 50.225H60.0837C62.8011 50.225 65.1004 48.043 65.1004 45.2375V11.9875C65.1004 9.28594 62.8011 7 60.0837 7ZM58.4115 36.925H11.5893V13.65H58.4115V36.925Z" fill="#21A9D9"/>
<path d="M45.3117 39.0167C48.3317 36.5055 50.2992 32.8682 50.2992 28.7436C50.2992 20.8857 43.2237 14.7998 34.9992 14.7998C26.7175 14.7998 19.6992 20.8905 19.6992 28.7436C19.6992 32.8764 21.6329 36.5366 24.6867 39.0589V41.5404C24.6867 44.0354 26.6245 46.0998 29.1805 46.0998H31.3367H31.6742H33.3367H33.6742H36.3242H36.6617H38.3242H38.6617H40.818C43.2951 46.0998 45.3117 44.0627 45.3117 41.5404V39.0167ZM28.6867 30.4498C28.6867 29.6182 29.3147 29.0373 30.0117 29.0373C30.6769 29.0373 31.3367 29.6389 31.3367 30.4498C31.3367 31.2935 30.697 31.8623 30.0117 31.8623C29.2946 31.8623 28.6867 31.3141 28.6867 30.4498ZM41.3117 30.4498C41.3117 31.2935 40.672 31.8623 39.9867 31.8623C39.2696 31.8623 38.6617 31.3141 38.6617 30.4498C38.6617 29.6182 39.2897 29.0373 39.9867 29.0373C40.6519 29.0373 41.3117 29.6389 41.3117 30.4498Z" fill="#1D2E62" stroke="white" stroke-width="4"/>
</g>
<defs>
<clipPath id="clip0_8466_84547">
<rect width="70" height="70" fill="white"/>
</clipPath>
</defs>
</svg>
