<svg width="327" height="230" viewBox="0 0 327 230" fill="none" xmlns="http://www.w3.org/2000/svg">
<rect width="327" height="230" fill="white"/>
<rect opacity="0.05" x="23.1523" y="67.0986" width="274.766" height="122.888" rx="6.30197" fill="#232B6D"/>
<path d="M79.8672 128.857H259.788" stroke="#5E69CB" stroke-width="0.630197" stroke-dasharray="5.67 5.67"/>
<path d="M191.414 67.0986L269.243 112.473" stroke="#5E69CB" stroke-width="0.630197" stroke-dasharray="5.67 5.67"/>
<path d="M79.8672 142.092H259.788" stroke="#5E69CB" stroke-width="0.630197" stroke-dasharray="5.67 5.67"/>
<circle cx="277.122" cy="128.858" r="30.8797" fill="#85CEDE"/>
<circle cx="181.962" cy="61.4267" r="21.4267" fill="#E55960"/>
<path d="M177.548 117.319H204.016C206.429 117.319 208.428 119.318 208.428 121.731V126.142C208.428 128.623 206.429 130.553 204.016 130.553H177.548C175.067 130.553 173.137 128.623 173.137 126.142V121.731C173.137 119.318 175.067 117.319 177.548 117.319ZM196.848 122.282C195.883 122.282 195.194 123.04 195.194 123.936C195.194 124.901 195.883 125.591 196.848 125.591C197.744 125.591 198.502 124.901 198.502 123.936C198.502 123.04 197.744 122.282 196.848 122.282ZM200.156 123.936C200.156 124.901 200.846 125.591 201.811 125.591C202.707 125.591 203.465 124.901 203.465 123.936C203.465 123.04 202.707 122.282 201.811 122.282C200.846 122.282 200.156 123.04 200.156 123.936ZM177.548 134.965H204.016C206.429 134.965 208.428 136.964 208.428 139.376V143.787C208.428 146.269 206.429 148.199 204.016 148.199H177.548C175.067 148.199 173.137 146.269 173.137 143.787V139.376C173.137 136.964 175.067 134.965 177.548 134.965ZM196.848 139.928C195.883 139.928 195.194 140.686 195.194 141.582C195.194 142.547 195.883 143.236 196.848 143.236C197.744 143.236 198.502 142.547 198.502 141.582C198.502 140.686 197.744 139.928 196.848 139.928ZM200.708 141.582C200.708 142.547 201.397 143.236 202.362 143.236C203.258 143.236 204.016 142.547 204.016 141.582C204.016 140.686 203.258 139.928 202.362 139.928C201.397 139.928 200.708 140.686 200.708 141.582Z" fill="#E55960"/>
<circle cx="76.7177" cy="123.816" r="56.7177" fill="#FFD57B"/>
</svg>
