<svg width="327" height="230" viewBox="0 0 327 230" fill="none" xmlns="http://www.w3.org/2000/svg">
<rect width="327" height="230" fill="white"/>
<rect opacity="0.05" x="19" y="30" width="289.531" height="170" rx="6.64062" fill="#232B6D"/>
<path d="M85.4062 137.578L126.246 79.8047L219.215 174.102L274 122.305" stroke="#5E69CB" stroke-width="0.664062" stroke-dasharray="5.98 5.98"/>
<path d="M62.8281 137.578L103.668 79.8047L196.637 174.102L251.422 122.305" stroke="#5E69CB" stroke-width="0.664062" stroke-dasharray="5.98 5.98"/>
<rect x="208.922" y="61.875" width="77.0312" height="77.0312" rx="2.65625" fill="#848DD7"/>
<rect x="212.906" y="65.8594" width="77.0312" height="77.0312" rx="2.65625" fill="white"/>
<rect x="224.195" y="79.1406" width="55.1172" height="6.64062" rx="3.32031" fill="#2C3474"/>
<rect x="224.195" y="93.75" width="55.1172" height="6.64062" rx="3.32031" fill="#85CEDE"/>
<rect x="224.195" y="108.359" width="35.8594" height="6.64062" rx="3.32031" fill="#85CEDE"/>
<rect x="224.195" y="122.969" width="55.1172" height="6.64062" rx="3.32031" fill="#85CEDE"/>
<circle cx="70.7969" cy="142.891" r="32.5391" fill="#E55960"/>
<path d="M56.8516 126.082H84.7422C87.2843 126.082 89.3906 128.188 89.3906 130.73V135.379C89.3906 137.994 87.2843 140.027 84.7422 140.027H56.8516C54.2368 140.027 52.2031 137.994 52.2031 135.379V130.73C52.2031 128.188 54.2368 126.082 56.8516 126.082ZM77.1885 131.312C76.1716 131.312 75.4453 132.11 75.4453 133.055C75.4453 134.072 76.1716 134.798 77.1885 134.798C78.1327 134.798 78.9316 134.072 78.9316 133.055C78.9316 132.11 78.1327 131.312 77.1885 131.312ZM80.6748 133.055C80.6748 134.072 81.4011 134.798 82.418 134.798C83.3622 134.798 84.1611 134.072 84.1611 133.055C84.1611 132.11 83.3622 131.312 82.418 131.312C81.4011 131.312 80.6748 132.11 80.6748 133.055ZM56.8516 144.676H84.7422C87.2843 144.676 89.3906 146.782 89.3906 149.324V153.973C89.3906 156.587 87.2843 158.621 84.7422 158.621H56.8516C54.2368 158.621 52.2031 156.587 52.2031 153.973V149.324C52.2031 146.782 54.2368 144.676 56.8516 144.676ZM77.1885 149.905C76.1716 149.905 75.4453 150.704 75.4453 151.648C75.4453 152.665 76.1716 153.392 77.1885 153.392C78.1327 153.392 78.9316 152.665 78.9316 151.648C78.9316 150.704 78.1327 149.905 77.1885 149.905ZM81.2559 151.648C81.2559 152.665 81.9822 153.392 82.999 153.392C83.9432 153.392 84.7422 152.665 84.7422 151.648C84.7422 150.704 83.9432 149.905 82.999 149.905C81.9822 149.905 81.2559 150.704 81.2559 151.648Z" fill="white"/>
<circle cx="163.102" cy="65.8594" r="11.2891" fill="#85CEDE"/>
<circle cx="138.531" cy="161.484" r="11.2891" fill="#FFD57B"/>
</svg>
