<svg width="70" height="70" viewBox="0 0 70 70" fill="none" xmlns="http://www.w3.org/2000/svg">
<rect width="70" height="70" fill="white"/>
<path d="M35.0012 7.70068C36.4179 7.70068 37.5648 8.84755 37.5648 10.2643V12.1083C48.2464 13.2776 56.7242 21.7555 57.8936 32.4371H59.7376C61.1543 32.4371 62.3012 33.584 62.3012 35.0007C62.3012 36.4174 61.1543 37.5643 59.7376 37.5643H57.8936C56.7017 48.2459 48.2239 56.7237 37.5648 57.8931V59.7371C37.5648 61.1538 36.4179 62.3007 35.0012 62.3007C33.5844 62.3007 32.4376 61.1538 32.4376 59.7371V57.8931C21.7559 56.7013 13.2781 48.2234 12.1087 37.5643H10.2648C8.84804 37.5643 7.70117 36.4174 7.70117 35.0007C7.70117 33.584 8.84804 32.4371 10.2648 32.4371H12.1087C13.2781 21.7555 21.7559 13.2776 32.4376 12.1083V10.2643C32.4376 8.84755 33.5844 7.70068 35.0012 7.70068V7.70068ZM32.4376 52.7434V49.5052C32.4376 48.0885 33.5844 46.9416 35.0012 46.9416C36.4179 46.9416 37.5648 48.0885 37.5648 49.5052V52.7434C45.4129 51.6191 51.6195 45.4125 52.7439 37.5643H49.5057C48.089 37.5643 46.9421 36.4174 46.9421 35.0007C46.9421 33.584 48.089 32.4371 49.5057 32.4371H52.7439C51.6195 24.5889 45.4129 18.3823 37.5648 17.2579V20.4962C37.5648 21.9129 36.4179 23.0597 35.0012 23.0597C33.5844 23.0597 32.4376 21.9129 32.4376 20.4962V17.2579C24.5894 18.3823 18.3828 24.5889 17.2584 32.4371H20.4966C21.9134 32.4371 23.0602 33.584 23.0602 35.0007C23.0602 36.4174 21.9134 37.5643 20.4966 37.5643H17.2584C18.3828 45.4125 24.5894 51.6191 32.4376 52.7434ZM31.583 35.0007C31.583 33.1117 33.1122 31.5826 35.0012 31.5826C36.8901 31.5826 38.4193 33.1117 38.4193 35.0007C38.4193 36.8896 36.8901 38.4188 35.0012 38.4188C33.1122 38.4188 31.583 36.8896 31.583 35.0007Z" fill="#21A9D9"/>
<path d="M45.6821 26.9492C48.2907 29.3553 50.0222 32.1888 50.8318 34.2352C51.0117 34.6624 51.0117 35.1572 50.8318 35.6069C49.9997 37.5858 48.2682 40.4193 45.6821 42.8929C43.0735 45.3216 39.4755 47.3679 34.978 47.3679C30.4805 47.3679 26.9049 45.3216 24.2739 42.8929C21.6653 40.4417 19.9338 37.5858 19.1017 35.6069C18.9218 35.1796 18.9218 34.6849 19.1017 34.2352C19.9338 32.2113 21.6653 29.3553 24.2739 26.9492C26.8824 24.5205 30.4805 22.4741 34.978 22.4741C39.4755 22.4741 43.0511 24.5205 45.6821 26.9492ZM34.978 26.9267C30.5704 26.9267 26.9724 30.5022 26.9724 34.9323C26.9724 39.3623 30.5479 42.9379 34.978 42.9379C39.4081 42.9379 42.9836 39.3623 42.9836 34.9323C42.9836 30.5022 39.4081 26.9267 34.978 26.9267ZM34.5058 29.6252C34.6632 29.6252 34.8206 29.6027 34.978 29.6027C37.9239 29.6027 40.3076 31.9414 40.3076 34.9323C40.3076 37.9231 37.9239 40.2618 34.978 40.2618C32.0321 40.2618 29.6484 37.8782 29.6484 34.9323C29.6484 34.7749 29.6484 34.6174 29.6709 34.46C30.1881 34.7074 30.7953 34.9323 31.425 34.9323C33.3814 34.9323 34.978 33.3357 34.978 31.3792C34.978 30.7496 34.7531 30.1424 34.5058 29.6252V29.6252Z" stroke="white" stroke-width="7"/>
<path d="M45.6821 26.9492C48.2907 29.3553 50.0222 32.1888 50.8318 34.2352C51.0117 34.6624 51.0117 35.1572 50.8318 35.6069C49.9997 37.5858 48.2682 40.4193 45.6821 42.8929C43.0735 45.3216 39.4755 47.3679 34.978 47.3679C30.4805 47.3679 26.9049 45.3216 24.2739 42.8929C21.6653 40.4417 19.9338 37.5858 19.1017 35.6069C18.9218 35.1796 18.9218 34.6849 19.1017 34.2352C19.9338 32.2113 21.6653 29.3553 24.2739 26.9492C26.8824 24.5205 30.4805 22.4741 34.978 22.4741C39.4755 22.4741 43.0511 24.5205 45.6821 26.9492ZM34.978 26.9267C30.5704 26.9267 26.9724 30.5022 26.9724 34.9323C26.9724 39.3623 30.5479 42.9379 34.978 42.9379C39.4081 42.9379 42.9836 39.3623 42.9836 34.9323C42.9836 30.5022 39.4081 26.9267 34.978 26.9267ZM34.5058 29.6252C34.6632 29.6252 34.8206 29.6027 34.978 29.6027C37.9239 29.6027 40.3076 31.9414 40.3076 34.9323C40.3076 37.9231 37.9239 40.2618 34.978 40.2618C32.0321 40.2618 29.6484 37.8782 29.6484 34.9323C29.6484 34.7749 29.6484 34.6174 29.6709 34.46C30.1881 34.7074 30.7953 34.9323 31.425 34.9323C33.3814 34.9323 34.978 33.3357 34.978 31.3792C34.978 30.7496 34.7531 30.1424 34.5058 29.6252Z" fill="#1D2E62"/>
</svg>
