<svg width="327" height="230" viewBox="0 0 327 230" fill="none" xmlns="http://www.w3.org/2000/svg">
<rect width="327" height="230" fill="white"/>
<path d="M242.125 45.5H133.375C127.258 45.5 122.5 50.4844 122.5 56.375V128.875C122.5 134.992 127.258 139.75 133.375 139.75H176.875L173.25 150.625H156.938C153.766 150.625 151.5 153.117 151.5 156.062C151.5 159.234 153.766 161.5 156.938 161.5H218.562C221.508 161.5 224 159.234 224 156.062C224 153.117 221.508 150.625 218.562 150.625H202.25L198.625 139.75H242.125C248.016 139.75 253 134.992 253 128.875V56.375C253 50.4844 248.016 45.5 242.125 45.5ZM238.5 110.75H137V60H238.5V110.75Z" fill="#FFD57B"/>
<mask id="path-2-outside-1_8470_106886" maskUnits="userSpaceOnUse" x="67.5" y="92" width="88" height="99" fill="black">
<rect fill="white" x="67.5" y="92" width="88" height="99"/>
<path d="M86.9375 131V122.938C86.9375 109.668 97.6875 98.75 111.125 98.75C124.395 98.75 135.312 109.668 135.312 122.938V131H138C143.879 131 148.75 135.871 148.75 141.75V174C148.75 180.047 143.879 184.75 138 184.75H84.25C78.2031 184.75 73.5 180.047 73.5 174V141.75C73.5 135.871 78.2031 131 84.25 131H86.9375ZM97.6875 131H124.562V122.938C124.562 115.547 118.516 109.5 111.125 109.5C103.566 109.5 97.6875 115.547 97.6875 122.938V131Z"/>
</mask>
<path d="M86.9375 131V122.938C86.9375 109.668 97.6875 98.75 111.125 98.75C124.395 98.75 135.312 109.668 135.312 122.938V131H138C143.879 131 148.75 135.871 148.75 141.75V174C148.75 180.047 143.879 184.75 138 184.75H84.25C78.2031 184.75 73.5 180.047 73.5 174V141.75C73.5 135.871 78.2031 131 84.25 131H86.9375ZM97.6875 131H124.562V122.938C124.562 115.547 118.516 109.5 111.125 109.5C103.566 109.5 97.6875 115.547 97.6875 122.938V131Z" fill="#E55960"/>
<path d="M86.9375 131V137H92.9375V131H86.9375ZM135.312 131H129.312V137H135.312V131ZM97.6875 131H91.6875V137H97.6875V131ZM124.562 131V137H130.562V131H124.562ZM92.9375 131V122.938H80.9375V131H92.9375ZM92.9375 122.938C92.9375 112.955 101.028 104.75 111.125 104.75V92.75C94.3467 92.75 80.9375 106.381 80.9375 122.938H92.9375ZM111.125 104.75C121.081 104.75 129.312 112.982 129.312 122.938H141.312C141.312 106.354 127.708 92.75 111.125 92.75V104.75ZM129.312 122.938V131H141.312V122.938H129.312ZM135.312 137H138V125H135.312V137ZM138 137C140.565 137 142.75 139.185 142.75 141.75H154.75C154.75 132.557 147.193 125 138 125V137ZM142.75 141.75V174H154.75V141.75H142.75ZM142.75 174C142.75 176.672 140.627 178.75 138 178.75V190.75C147.131 190.75 154.75 183.422 154.75 174H142.75ZM138 178.75H84.25V190.75H138V178.75ZM84.25 178.75C81.5168 178.75 79.5 176.733 79.5 174H67.5C67.5 183.361 74.8894 190.75 84.25 190.75V178.75ZM79.5 174V141.75H67.5V174H79.5ZM79.5 141.75C79.5 139.123 81.5778 137 84.25 137V125C74.8284 125 67.5 132.619 67.5 141.75H79.5ZM84.25 137H86.9375V125H84.25V137ZM97.6875 137H124.562V125H97.6875V137ZM130.562 131V122.938H118.562V131H130.562ZM130.562 122.938C130.562 112.233 121.829 103.5 111.125 103.5V115.5C115.202 115.5 118.562 118.861 118.562 122.938H130.562ZM111.125 103.5C100.204 103.5 91.6875 112.282 91.6875 122.938H103.688C103.688 118.812 106.929 115.5 111.125 115.5V103.5ZM91.6875 122.938V131H103.688V122.938H91.6875Z" fill="white" mask="url(#path-2-outside-1_8470_106886)"/>
</svg>
