<svg width="327" height="230" viewBox="0 0 327 230" fill="none" xmlns="http://www.w3.org/2000/svg">
<rect width="327" height="230" fill="white"/>
<path d="M112.67 59C116.626 59 119.84 62.5652 119.84 66.9531V150.872C119.84 153.066 121.489 154.894 123.467 154.894H213.548C217.504 154.894 220.718 158.459 220.718 162.847C220.718 167.235 217.504 170.8 213.548 170.8H123.549C113.577 170.8 105.5 161.842 105.5 150.781V66.9531C105.5 62.5652 108.714 59 112.67 59Z" fill="#1D1F21"/>
<path d="M141.514 106.993C145.47 106.993 148.684 110.558 148.684 114.946V130.944C148.684 135.332 145.47 138.897 141.514 138.897C137.558 138.897 134.344 135.332 134.344 130.944V114.946C134.344 110.558 137.558 106.993 141.514 106.993Z" fill="#FFD57B"/>
<path d="M170.364 130.943C170.364 135.331 167.15 138.897 163.194 138.897C159.238 138.897 156.023 135.331 156.023 130.943V90.9951C156.023 86.6072 159.238 83.042 163.194 83.042C167.15 83.042 170.364 86.6072 170.364 90.9951V130.943Z" fill="#E55960"/>
<path d="M184.787 98.9482C188.743 98.9482 191.958 102.513 191.958 106.901V130.852C191.958 135.24 188.743 138.805 184.787 138.805C180.831 138.805 177.617 135.24 177.617 130.852V106.901C177.617 102.513 180.831 98.9482 184.787 98.9482Z" fill="#85CEDE"/>
<path d="M213.547 130.944C213.547 135.332 210.333 138.897 206.377 138.897C202.421 138.897 199.207 135.332 199.207 130.944V74.998C199.207 70.6101 202.421 67.0449 206.377 67.0449C210.333 67.0449 213.547 70.6101 213.547 74.998V130.944Z" fill="#5E69CB"/>
</svg>
