<svg width="70" height="70" viewBox="0 0 70 70" fill="none" xmlns="http://www.w3.org/2000/svg">
<rect width="70" height="70" fill="white"/>
<path d="M13.2263 27.387C13.8051 26.2295 14.9626 25.4854 16.2855 25.4854H52.0032C53.2434 25.4854 54.401 26.2295 54.9797 27.387C55.4758 28.5445 55.3104 29.9501 54.4836 30.9422L39.4359 49.3799V59.8802C39.4359 60.9551 38.8571 61.8646 37.9476 62.278C37.0382 62.6914 35.9633 62.6087 35.1365 62.0299L29.845 58.0613C29.1836 57.5652 28.8528 56.8211 28.8528 55.9116V49.3799L13.7224 30.9422C12.8956 29.9501 12.7302 28.5445 13.2263 27.387Z" fill="#E16965"/>
<path d="M41.4861 25.0877L34.7258 31.8479C34.4723 32.1014 34.1343 32.2282 33.7963 32.2282C33.416 32.2282 33.078 32.1014 32.8245 31.8479L26.0643 25.0877C25.515 24.5807 25.515 23.6934 26.0643 23.1864C26.5713 22.6371 27.4586 22.6371 27.9656 23.1864L32.4443 27.6228V14.6516C32.4443 13.9333 33.0358 13.3418 33.7541 13.3418C34.4301 13.3418 35.1483 13.9333 35.1483 14.6516V27.6228L39.5847 23.1864C40.0918 22.6371 40.979 22.6371 41.4861 23.1864C42.0353 23.6934 42.0353 24.5807 41.4861 25.0877Z" fill="#27A0DB"/>
<path d="M27.3435 17.4549L20.5833 24.2151C20.3297 24.4686 19.9917 24.5954 19.6537 24.5954C19.2735 24.5954 18.9355 24.4686 18.6819 24.2151L11.9217 17.4549C11.3724 16.9479 11.3724 16.0606 11.9217 15.5536C12.4287 15.0043 13.316 15.0043 13.823 15.5536L18.3017 19.99V7.01878C18.3017 6.3005 18.8932 5.70898 19.6115 5.70898C20.2875 5.70898 21.0058 6.3005 21.0058 7.01878V19.99L25.4422 15.5536C25.9492 15.0043 26.8365 15.0043 27.3435 15.5536C27.8927 16.0606 27.8927 16.9479 27.3435 17.4549Z" fill="#CDE3E7"/>
<path d="M57.6872 17.4549L50.927 24.2151C50.6735 24.4686 50.3355 24.5954 49.9975 24.5954C49.6172 24.5954 49.2792 24.4686 49.0257 24.2151L42.2655 17.4549C41.7162 16.9479 41.7162 16.0606 42.2655 15.5536C42.7725 15.0043 43.6598 15.0043 44.1668 15.5536L48.6454 19.99V7.01878C48.6454 6.3005 49.2369 5.70898 49.9552 5.70898C50.6312 5.70898 51.3495 6.3005 51.3495 7.01878V19.99L55.7859 15.5536C56.2929 15.0043 57.1802 15.0043 57.6872 15.5536C58.2365 16.0606 58.2365 16.9479 57.6872 17.4549Z" fill="#CDE3E7"/>
</svg>
