<svg width="327" height="230" viewBox="0 0 327 230" fill="none" xmlns="http://www.w3.org/2000/svg">
<rect width="327" height="230" fill="white"/>
<path d="M224.75 136.125V150.625C224.75 156.742 219.766 161.5 213.875 161.5H203V150.625C203 148.812 201.188 147 199.375 147C197.336 147 195.75 148.812 195.75 150.625V161.5H181.25V150.625C181.25 148.812 179.438 147 177.625 147C175.586 147 174 148.812 174 150.625V161.5H163.125C157.008 161.5 152.25 156.742 152.25 150.625V136.125C152.25 136.125 152.25 136.125 152.25 135.898C138.883 126.609 130.5 112.336 130.5 96.25C130.5 68.3828 156.328 45.5 188.5 45.5C220.445 45.5 246.5 68.3828 246.5 96.25C246.5 112.336 237.891 126.609 224.523 135.898C224.523 136.125 224.75 136.125 224.75 136.125ZM166.75 89C158.594 89 152.25 95.5703 152.25 103.5C152.25 111.656 158.594 118 166.75 118C174.68 118 181.25 111.656 181.25 103.5C181.25 95.5703 174.68 89 166.75 89ZM210.25 118C218.18 118 224.75 111.656 224.75 103.5C224.75 95.5703 218.18 89 210.25 89C202.094 89 195.75 95.5703 195.75 103.5C195.75 111.656 202.094 118 210.25 118Z" fill="#85CEDE"/>
<mask id="path-2-outside-1_8470_106910" maskUnits="userSpaceOnUse" x="74.5" y="98" width="99" height="88" fill="black">
<rect fill="white" x="74.5" y="98" width="99" height="88"/>
<path d="M166.492 168.793L130.715 107.652C127.859 102.949 120.973 102.949 118.285 107.652L82.3398 168.793C79.6523 173.496 83.0117 179.375 88.5547 179.375H160.277C165.82 179.375 169.18 173.496 166.492 168.793ZM120.469 126.969C120.469 124.785 122.148 122.938 124.5 122.938C126.684 122.938 128.531 124.785 128.531 126.969V148.469C128.531 150.82 126.684 152.5 124.5 152.5C122.484 152.5 120.469 150.82 120.469 148.469V126.969ZM124.5 168.625C121.477 168.625 119.125 166.273 119.125 163.418C119.125 160.562 121.477 158.211 124.5 158.211C127.355 158.211 129.707 160.562 129.707 163.418C129.707 166.273 127.355 168.625 124.5 168.625Z"/>
</mask>
<path d="M166.492 168.793L130.715 107.652C127.859 102.949 120.973 102.949 118.285 107.652L82.3398 168.793C79.6523 173.496 83.0117 179.375 88.5547 179.375H160.277C165.82 179.375 169.18 173.496 166.492 168.793ZM120.469 126.969C120.469 124.785 122.148 122.938 124.5 122.938C126.684 122.938 128.531 124.785 128.531 126.969V148.469C128.531 150.82 126.684 152.5 124.5 152.5C122.484 152.5 120.469 150.82 120.469 148.469V126.969ZM124.5 168.625C121.477 168.625 119.125 166.273 119.125 163.418C119.125 160.562 121.477 158.211 124.5 158.211C127.355 158.211 129.707 160.562 129.707 163.418C129.707 166.273 127.355 168.625 124.5 168.625Z" fill="#FFD57B"/>
<path d="M166.492 168.793L171.702 165.816L171.686 165.789L171.671 165.763L166.492 168.793ZM130.715 107.652L135.893 104.622L135.869 104.58L135.844 104.538L130.715 107.652ZM118.285 107.652L123.457 110.693L123.476 110.661L123.495 110.629L118.285 107.652ZM82.3398 168.793L77.1675 165.752L77.1487 165.784L77.1304 165.816L82.3398 168.793ZM171.671 165.763L135.893 104.622L125.536 110.683L161.314 171.823L171.671 165.763ZM135.844 104.538C130.724 96.1065 118.135 95.8221 113.076 104.676L123.495 110.629C123.668 110.326 123.962 110.125 124.437 110.125C124.919 110.125 125.329 110.343 125.586 110.766L135.844 104.538ZM113.113 104.611L77.1675 165.752L87.5122 171.834L123.457 110.693L113.113 104.611ZM77.1304 165.816C72.1495 174.533 78.4204 185.375 88.5547 185.375V173.375C87.603 173.375 87.1552 172.459 87.5493 171.77L77.1304 165.816ZM88.5547 185.375H160.277V173.375H88.5547V185.375ZM160.277 185.375C170.412 185.375 176.683 174.533 171.702 165.816L161.283 171.77C161.677 172.459 161.229 173.375 160.277 173.375V185.375ZM126.469 126.969C126.469 127.428 126.287 127.923 125.906 128.315C125.501 128.733 124.96 128.938 124.5 128.938V116.938C118.672 116.938 114.469 121.637 114.469 126.969H126.469ZM124.5 128.938C123.874 128.938 123.39 128.675 123.092 128.377C122.794 128.079 122.531 127.594 122.531 126.969H134.531C134.531 121.471 129.997 116.938 124.5 116.938V128.938ZM122.531 126.969V148.469H134.531V126.969H122.531ZM122.531 148.469C122.531 148.008 122.736 147.468 123.154 147.063C123.546 146.681 124.041 146.5 124.5 146.5V158.5C129.832 158.5 134.531 154.297 134.531 148.469H122.531ZM124.5 146.5C125.123 146.5 125.564 146.736 125.848 147.004C126.181 147.319 126.469 147.847 126.469 148.469H114.469C114.469 154.453 119.498 158.5 124.5 158.5V146.5ZM126.469 148.469V126.969H114.469V148.469H126.469ZM124.5 162.625C124.577 162.625 124.734 162.666 124.874 162.803C125.011 162.937 125.125 163.161 125.125 163.418H113.125C113.125 169.711 118.288 174.625 124.5 174.625V162.625ZM125.125 163.418C125.125 163.675 125.011 163.899 124.874 164.033C124.734 164.17 124.577 164.211 124.5 164.211V152.211C118.288 152.211 113.125 157.125 113.125 163.418H125.125ZM124.5 164.211C124.25 164.211 124.049 164.104 123.932 163.986C123.814 163.869 123.707 163.668 123.707 163.418H135.707C135.707 157.249 130.669 152.211 124.5 152.211V164.211ZM123.707 163.418C123.707 163.168 123.814 162.967 123.932 162.85C124.049 162.732 124.25 162.625 124.5 162.625V174.625C130.669 174.625 135.707 169.587 135.707 163.418H123.707Z" fill="white" mask="url(#path-2-outside-1_8470_106910)"/>
</svg>
