<svg width="327" height="230" viewBox="0 0 327 230" fill="none" xmlns="http://www.w3.org/2000/svg">
<rect width="327" height="230" fill="white"/>
<path d="M191.375 49.3516C191.375 47.3125 192.734 45.5 195 45.5C222.867 45.5 245.75 68.3828 245.75 96.25C245.75 98.2891 243.938 99.875 241.898 99.875H191.375V49.3516ZM129.75 107.125C129.75 79.7109 150.141 57.0547 176.422 53.4297C178.688 52.9766 180.5 54.7891 180.5 56.8281V110.75L215.844 146.32C217.43 147.906 217.203 150.398 215.617 151.531C206.555 157.875 195.68 161.5 184.125 161.5C153.992 161.5 129.75 137.258 129.75 107.125ZM248.922 110.75C250.961 110.75 252.773 112.562 252.32 114.602C250.734 127.289 244.617 138.617 235.555 147C234.195 148.133 232.156 148.133 230.797 146.773L195 110.75H248.922Z" fill="#E55960"/>
<mask id="path-2-outside-1_8470_106875" maskUnits="userSpaceOnUse" x="74.5" y="92" width="94" height="99" fill="black">
<rect fill="white" x="74.5" y="92" width="94" height="99"/>
<path d="M155.637 112.691C159.332 114.371 162.188 117.898 162.188 122.266C162.02 139.062 155.133 169.465 126.242 183.406C123.387 184.75 120.195 184.75 117.34 183.406C88.4492 169.465 81.5625 139.062 81.3945 122.266C81.3945 117.898 84.25 114.371 87.9453 112.691L119.523 99.2539C120.195 99.0859 121.035 98.75 121.875 98.75C122.547 98.75 123.387 99.0859 124.059 99.2539L155.637 112.691ZM93.9922 136.375H121.875V110.004L92.3125 122.602C92.3125 126.633 92.8164 131.336 93.9922 136.375ZM149.59 136.375H121.875V173.496C138.672 165.434 146.566 149.98 149.59 136.375Z"/>
</mask>
<path d="M155.637 112.691C159.332 114.371 162.188 117.898 162.188 122.266C162.02 139.062 155.133 169.465 126.242 183.406C123.387 184.75 120.195 184.75 117.34 183.406C88.4492 169.465 81.5625 139.062 81.3945 122.266C81.3945 117.898 84.25 114.371 87.9453 112.691L119.523 99.2539C120.195 99.0859 121.035 98.75 121.875 98.75C122.547 98.75 123.387 99.0859 124.059 99.2539L155.637 112.691ZM93.9922 136.375H121.875V110.004L92.3125 122.602C92.3125 126.633 92.8164 131.336 93.9922 136.375ZM149.59 136.375H121.875V173.496C138.672 165.434 146.566 149.98 149.59 136.375Z" fill="#85CEDE"/>
<path d="M155.637 112.691L158.12 107.229L158.053 107.199L157.986 107.17L155.637 112.691ZM162.188 122.266L168.187 122.326L168.188 122.296V122.266H162.188ZM126.242 183.406L128.797 188.835L128.823 188.823L128.85 188.81L126.242 183.406ZM117.34 183.406L114.732 188.81L114.759 188.823L114.785 188.835L117.34 183.406ZM81.3945 122.266H75.3945V122.296L75.3948 122.326L81.3945 122.266ZM87.9453 112.691L85.596 107.17L85.5289 107.199L85.4625 107.229L87.9453 112.691ZM119.523 99.2539L118.068 93.4331L117.609 93.5478L117.174 93.733L119.523 99.2539ZM124.059 99.2539L126.408 93.733L125.973 93.5478L125.514 93.4331L124.059 99.2539ZM93.9922 136.375L88.1491 137.738L89.231 142.375H93.9922V136.375ZM121.875 136.375V142.375H127.875V136.375H121.875ZM121.875 110.004H127.875V100.925L119.523 104.484L121.875 110.004ZM92.3125 122.602L89.9603 117.082L86.3125 118.636V122.602H92.3125ZM149.59 136.375L155.447 137.677L157.07 130.375H149.59V136.375ZM121.875 136.375V130.375H115.875V136.375H121.875ZM121.875 173.496H115.875V183.031L124.471 178.905L121.875 173.496ZM153.154 118.154C155.162 119.067 156.188 120.714 156.188 122.266H168.188C168.188 115.083 163.502 109.676 158.12 107.229L153.154 118.154ZM156.188 122.206C156.029 138.047 149.5 165.521 123.635 178.003L128.85 188.81C160.766 173.409 168.01 140.078 168.187 122.326L156.188 122.206ZM123.687 177.977C122.45 178.56 121.132 178.56 119.895 177.977L114.785 188.835C119.259 190.94 124.323 190.94 128.797 188.835L123.687 177.977ZM119.947 178.003C94.0821 165.521 87.5526 138.047 87.3942 122.206L75.3948 122.326C75.5724 140.078 82.8163 173.409 114.732 188.81L119.947 178.003ZM87.3945 122.266C87.3945 120.714 88.4196 119.067 90.4281 118.154L85.4625 107.229C80.0804 109.676 75.3945 115.083 75.3945 122.266H87.3945ZM90.2946 118.212L121.873 104.775L117.174 93.733L85.596 107.17L90.2946 118.212ZM120.979 105.075C121.291 104.997 121.591 104.907 121.758 104.858C121.965 104.797 122.068 104.766 122.163 104.741C122.249 104.719 122.259 104.719 122.222 104.725C122.183 104.732 122.06 104.75 121.875 104.75V92.75C120.699 92.75 119.702 92.9805 119.109 93.1365C118.805 93.2165 118.52 93.3017 118.354 93.3507C118.26 93.3788 118.197 93.3971 118.143 93.4125C118.118 93.4196 118.1 93.4247 118.087 93.4282C118.073 93.4317 118.068 93.4332 118.068 93.4331L120.979 105.075ZM121.875 104.75C121.564 104.75 121.357 104.713 121.31 104.704C121.255 104.694 121.259 104.692 121.361 104.72C121.473 104.751 121.579 104.784 121.804 104.851C121.988 104.906 122.286 104.995 122.603 105.075L125.514 93.4331C125.514 93.4332 125.509 93.4318 125.497 93.4286C125.485 93.4253 125.468 93.4206 125.445 93.4141C125.397 93.4003 125.337 93.3828 125.253 93.3574C125.111 93.3147 124.838 93.2316 124.573 93.1579C124.112 93.03 123.074 92.75 121.875 92.75V104.75ZM121.709 104.775L153.287 118.212L157.986 107.17L126.408 93.733L121.709 104.775ZM93.9922 142.375H121.875V130.375H93.9922V142.375ZM127.875 136.375V110.004H115.875V136.375H127.875ZM119.523 104.484L89.9603 117.082L94.6647 128.121L124.227 115.524L119.523 104.484ZM86.3125 122.602C86.3125 127.116 86.8747 132.276 88.1491 137.738L99.8352 135.012C98.7581 130.396 98.3125 126.15 98.3125 122.602H86.3125ZM149.59 130.375H121.875V142.375H149.59V130.375ZM115.875 136.375V173.496H127.875V136.375H115.875ZM124.471 178.905C143.486 169.778 152.181 152.372 155.447 137.677L143.733 135.073C140.951 147.589 133.857 161.089 119.279 168.087L124.471 178.905Z" fill="white" mask="url(#path-2-outside-1_8470_106875)"/>
</svg>
