<svg width="70" height="70" viewBox="0 0 70 70" fill="none" xmlns="http://www.w3.org/2000/svg">
<rect width="70" height="70" fill="white"/>
<path d="M41.7549 13.2475C41.7549 12.5338 42.2282 11.8994 43.0171 11.8994C52.7196 11.8994 60.6868 19.9084 60.6868 29.6619C60.6868 30.3756 60.0557 30.9307 59.3458 30.9307H41.7549V13.2475ZM20.2988 33.4682C20.2988 23.8732 27.3983 15.9436 36.5487 14.6748C37.3375 14.5162 37.9686 15.1506 37.9686 15.8643V34.7369L50.2743 47.1865C50.8265 47.7416 50.7476 48.6139 50.1954 49.0104C47.0401 51.2307 43.2537 52.4994 39.2307 52.4994C28.7393 52.4994 20.2988 44.0146 20.2988 33.4682ZM61.7912 34.7369C62.5011 34.7369 63.1322 35.3713 62.9744 36.085C62.4222 40.5256 60.2924 44.4904 57.1371 47.4244C56.6638 47.8209 55.9538 47.8209 55.4805 47.3451L43.0171 34.7369H61.7912Z" fill="#EA966A"/>
<path d="M34.2192 37.5752C34.4093 38.0607 34.2463 38.6272 33.8661 38.9778L31.3671 41.2435C31.4215 41.729 31.4758 42.2145 31.4758 42.7C31.4758 43.1855 31.4486 43.671 31.3671 44.1565L33.8661 46.4222C34.2463 46.7728 34.4093 47.3393 34.2192 47.8248C33.9747 48.4991 33.6488 49.1734 33.3228 49.7938L33.0512 50.2523C32.6709 50.8727 32.2363 51.493 31.7746 52.0594C31.4215 52.464 30.8782 52.6259 30.3621 52.464L27.1298 51.4391C26.3421 52.0325 25.4458 52.518 24.5766 52.8956L23.8432 56.1862C23.7345 56.6987 23.3271 57.0763 22.7839 57.2112C21.9962 57.3461 21.1541 57.4 20.2578 57.4C19.4701 57.4 18.6552 57.3191 17.8403 57.2112C17.2971 57.0763 16.8897 56.6987 16.781 56.1862L16.0476 52.8956C15.1241 52.518 14.2821 52.0325 13.4944 51.4391L10.2621 52.464C9.74599 52.6259 9.17559 52.464 8.84964 52.0594C8.38788 51.493 7.95329 50.8996 7.57302 50.2523L7.30139 49.7938C6.94828 49.1734 6.6495 48.4991 6.37788 47.8248C6.18774 47.3393 6.35072 46.7728 6.75815 46.4222L9.25707 44.1565C9.20275 43.671 9.14843 43.1855 9.14843 42.7C9.14843 42.2145 9.17559 41.729 9.25707 41.2435L6.75815 38.9778C6.35072 38.6272 6.18774 38.0607 6.37788 37.5752C6.62234 36.9009 6.94828 36.2266 7.30139 35.6062L7.57302 35.1477C7.95329 34.5273 8.38788 33.907 8.84964 33.3406C9.20275 32.936 9.74599 32.7741 10.2621 32.936L13.4944 33.9609C14.2821 33.3675 15.1241 32.882 16.0476 32.5044L16.781 29.2138C16.8897 28.7013 17.2971 28.2697 17.8403 28.1888C18.628 28.0539 19.4701 28 20.3121 28C21.1541 28 21.969 28.0809 22.7839 28.1888C23.3271 28.2697 23.7345 28.7013 23.8432 29.2138L24.5766 32.5044C25.4458 32.882 26.3421 33.3675 27.1298 33.9609L30.3621 32.936C30.8782 32.7741 31.4486 32.936 31.7746 33.3406C32.2363 33.907 32.6709 34.5004 33.0512 35.1477L33.3228 35.6062C33.6759 36.2266 33.9747 36.9009 34.2192 37.5752ZM20.3393 47.3123C22.8925 47.3123 24.984 45.2624 24.984 42.673C24.984 40.0837 22.9197 38.0607 20.3393 38.0607C17.7589 38.0607 15.6945 40.1646 15.6945 42.673C15.6945 45.1815 17.7589 47.3123 20.3393 47.3123Z" fill="#1D2E62"/>
</svg>
