<svg width="327" height="230" viewBox="0 0 327 230" fill="none" xmlns="http://www.w3.org/2000/svg">
<rect width="327" height="230" fill="white"/>
<path d="M188.5 161.5C156.328 161.5 130.5 135.672 130.5 103.5C130.5 71.5547 156.328 45.5 188.5 45.5C220.445 45.5 246.5 71.5547 246.5 103.5C246.5 135.672 220.445 161.5 188.5 161.5ZM183.062 103.5C183.062 105.312 183.969 107.125 185.328 108.031L207.078 122.531C209.57 124.344 212.969 123.664 214.555 121.172C216.367 118.68 215.688 115.281 213.195 113.469L193.938 100.781V72.6875C193.938 69.7422 191.445 67.25 188.273 67.25C185.328 67.25 182.836 69.7422 182.836 72.6875L183.062 103.5Z" fill="#1D1F21"/>
<mask id="path-2-outside-1_8470_106891" maskUnits="userSpaceOnUse" x="75.5" y="98" width="98" height="88" fill="black">
<rect fill="white" x="75.5" y="98" width="98" height="88"/>
<path d="M114.086 104.125H134.746C138.273 104.125 141.297 106.477 142.305 109.668L144.152 114.875H156.75C162.629 114.875 167.5 119.746 167.5 125.625V168.625C167.5 174.672 162.629 179.375 156.75 179.375H92.25C86.2031 179.375 81.5 174.672 81.5 168.625V125.625C81.5 119.746 86.2031 114.875 92.25 114.875H104.68L106.527 109.668C107.535 106.477 110.559 104.125 114.086 104.125ZM124.5 163.25C133.402 163.25 140.625 156.027 140.625 147.125C140.625 138.223 133.402 131 124.5 131C115.43 131 108.375 138.223 108.375 147.125C108.375 156.027 115.43 163.25 124.5 163.25Z"/>
</mask>
<path d="M114.086 104.125H134.746C138.273 104.125 141.297 106.477 142.305 109.668L144.152 114.875H156.75C162.629 114.875 167.5 119.746 167.5 125.625V168.625C167.5 174.672 162.629 179.375 156.75 179.375H92.25C86.2031 179.375 81.5 174.672 81.5 168.625V125.625C81.5 119.746 86.2031 114.875 92.25 114.875H104.68L106.527 109.668C107.535 106.477 110.559 104.125 114.086 104.125ZM124.5 163.25C133.402 163.25 140.625 156.027 140.625 147.125C140.625 138.223 133.402 131 124.5 131C115.43 131 108.375 138.223 108.375 147.125C108.375 156.027 115.43 163.25 124.5 163.25Z" fill="#5E69CB"/>
<path d="M142.305 109.668L136.583 111.475L136.615 111.575L136.65 111.674L142.305 109.668ZM144.152 114.875L138.498 116.881L139.915 120.875H144.152V114.875ZM104.68 114.875V120.875H108.917L110.334 116.881L104.68 114.875ZM106.527 109.668L112.182 111.674L112.217 111.575L112.249 111.475L106.527 109.668ZM114.086 110.125H134.746V98.125H114.086V110.125ZM134.746 110.125C135.572 110.125 136.338 110.699 136.583 111.475L148.026 107.861C146.256 102.254 140.975 98.125 134.746 98.125V110.125ZM136.65 111.674L138.498 116.881L149.807 112.869L147.959 107.662L136.65 111.674ZM144.152 120.875H156.75V108.875H144.152V120.875ZM156.75 120.875C159.315 120.875 161.5 123.06 161.5 125.625H173.5C173.5 116.432 165.943 108.875 156.75 108.875V120.875ZM161.5 125.625V168.625H173.5V125.625H161.5ZM161.5 168.625C161.5 171.297 159.377 173.375 156.75 173.375V185.375C165.881 185.375 173.5 178.047 173.5 168.625H161.5ZM156.75 173.375H92.25V185.375H156.75V173.375ZM92.25 173.375C89.5168 173.375 87.5 171.358 87.5 168.625H75.5C75.5 177.986 82.8894 185.375 92.25 185.375V173.375ZM87.5 168.625V125.625H75.5V168.625H87.5ZM87.5 125.625C87.5 122.998 89.5778 120.875 92.25 120.875V108.875C82.8284 108.875 75.5 116.494 75.5 125.625H87.5ZM92.25 120.875H104.68V108.875H92.25V120.875ZM110.334 116.881L112.182 111.674L100.873 107.662L99.0251 112.869L110.334 116.881ZM112.249 111.475C112.494 110.699 113.26 110.125 114.086 110.125V98.125C107.857 98.125 102.576 102.254 100.806 107.861L112.249 111.475ZM124.5 169.25C136.716 169.25 146.625 159.341 146.625 147.125H134.625C134.625 152.714 130.089 157.25 124.5 157.25V169.25ZM146.625 147.125C146.625 134.909 136.716 125 124.5 125V137C130.089 137 134.625 141.536 134.625 147.125H146.625ZM124.5 125C112.075 125 102.375 134.95 102.375 147.125H114.375C114.375 141.495 118.784 137 124.5 137V125ZM102.375 147.125C102.375 159.3 112.075 169.25 124.5 169.25V157.25C118.784 157.25 114.375 152.755 114.375 147.125H102.375Z" fill="white" mask="url(#path-2-outside-1_8470_106891)"/>
</svg>
