<svg width="327" height="230" viewBox="0 0 327 230" fill="none" xmlns="http://www.w3.org/2000/svg">
<rect width="327" height="230" fill="white"/>
<path d="M144.5 52.75H202.5V70.875H144.5V52.75ZM122.75 70.875V67.25C122.75 59.3203 129.094 52.75 137.25 52.75V70.875H122.75ZM169.875 78.125V99.875H122.75V78.125H169.875ZM122.75 128.875V107.125H137.25V128.875H122.75ZM169.875 136.125V154.25H137.25C129.094 154.25 122.75 147.906 122.75 139.75V136.125H169.875ZM182.109 136.125C183.922 142.922 187.32 149.266 191.852 154.25H177.125V136.125H182.109ZM224.25 78.125V78.3516L224.023 78.125H224.25ZM177.125 78.125H207.711C200.461 84.9219 194.117 92.625 189.359 99.875H177.125V78.125ZM144.5 107.125H185.281C182.562 113.016 180.75 119.133 180.75 125.023C180.75 126.383 180.75 127.742 180.75 128.875H144.5V107.125ZM209.75 70.875V52.75C217.68 52.75 224.25 59.3203 224.25 67.25V70.875H209.75ZM230.82 95.7969C232.406 93.5312 234.445 91.0391 236.711 89C238.07 87.8672 239.883 87.8672 241.242 89C246.906 94.2109 251.664 101.008 254.836 107.578C258.234 113.922 260.5 120.266 260.5 125.023C260.5 144.734 244.188 161.5 224.25 161.5C203.859 161.5 188 144.734 188 125.023C188 118.906 190.719 111.656 195.25 104.406C199.781 97.1562 206.125 89.4531 213.602 82.6562C214.961 81.5234 216.773 81.5234 218.133 82.6562C222.664 86.7344 226.742 91.0391 230.82 95.7969ZM240.109 121.852C239.656 120.945 239.203 120.039 238.523 119.133L230.367 128.648C230.367 128.648 217 111.883 216.094 110.75C209.523 119.133 206.125 123.891 206.125 129.328C206.125 140.43 214.281 147 224.25 147C228.555 147 232.18 145.867 235.578 143.602C242.375 138.844 244.188 129.328 240.109 121.852Z" fill="#E55960"/>
<mask id="path-2-outside-1_8470_106921" maskUnits="userSpaceOnUse" x="67.5" y="92" width="94" height="99" fill="black">
<rect fill="white" x="67.5" y="92" width="94" height="99"/>
<path d="M148.637 112.691C152.332 114.371 155.188 117.898 155.188 122.266C155.02 139.062 148.133 169.465 119.242 183.406C116.387 184.75 113.195 184.75 110.34 183.406C81.4492 169.465 74.5625 139.062 74.3945 122.266C74.3945 117.898 77.25 114.371 80.9453 112.691L112.523 99.2539C113.195 99.0859 114.035 98.75 114.875 98.75C115.547 98.75 116.387 99.0859 117.059 99.2539L148.637 112.691ZM86.9922 136.375H114.875V110.004L85.3125 122.602C85.3125 126.633 85.8164 131.336 86.9922 136.375ZM142.59 136.375H114.875V173.496C131.672 165.434 139.566 149.98 142.59 136.375Z"/>
</mask>
<path d="M148.637 112.691C152.332 114.371 155.188 117.898 155.188 122.266C155.02 139.062 148.133 169.465 119.242 183.406C116.387 184.75 113.195 184.75 110.34 183.406C81.4492 169.465 74.5625 139.062 74.3945 122.266C74.3945 117.898 77.25 114.371 80.9453 112.691L112.523 99.2539C113.195 99.0859 114.035 98.75 114.875 98.75C115.547 98.75 116.387 99.0859 117.059 99.2539L148.637 112.691ZM86.9922 136.375H114.875V110.004L85.3125 122.602C85.3125 126.633 85.8164 131.336 86.9922 136.375ZM142.59 136.375H114.875V173.496C131.672 165.434 139.566 149.98 142.59 136.375Z" fill="#1D1F21"/>
<path d="M148.637 112.691L151.12 107.229L151.053 107.199L150.986 107.17L148.637 112.691ZM155.188 122.266L161.187 122.326L161.188 122.296V122.266H155.188ZM119.242 183.406L121.797 188.835L121.823 188.823L121.85 188.81L119.242 183.406ZM110.34 183.406L107.732 188.81L107.759 188.823L107.785 188.835L110.34 183.406ZM74.3945 122.266H68.3945V122.296L68.3948 122.326L74.3945 122.266ZM80.9453 112.691L78.596 107.17L78.5289 107.199L78.4625 107.229L80.9453 112.691ZM112.523 99.2539L111.068 93.4331L110.609 93.5478L110.174 93.733L112.523 99.2539ZM117.059 99.2539L119.408 93.733L118.973 93.5478L118.514 93.4331L117.059 99.2539ZM86.9922 136.375L81.1491 137.738L82.231 142.375H86.9922V136.375ZM114.875 136.375V142.375H120.875V136.375H114.875ZM114.875 110.004H120.875V100.925L112.523 104.484L114.875 110.004ZM85.3125 122.602L82.9603 117.082L79.3125 118.636V122.602H85.3125ZM142.59 136.375L148.447 137.677L150.07 130.375H142.59V136.375ZM114.875 136.375V130.375H108.875V136.375H114.875ZM114.875 173.496H108.875V183.031L117.471 178.905L114.875 173.496ZM146.154 118.154C148.162 119.067 149.188 120.714 149.188 122.266H161.188C161.188 115.083 156.502 109.676 151.12 107.229L146.154 118.154ZM149.188 122.206C149.029 138.047 142.5 165.521 116.635 178.003L121.85 188.81C153.766 173.409 161.01 140.078 161.187 122.326L149.188 122.206ZM116.687 177.977C115.45 178.56 114.132 178.56 112.895 177.977L107.785 188.835C112.259 190.94 117.323 190.94 121.797 188.835L116.687 177.977ZM112.947 178.003C87.0821 165.521 80.5526 138.047 80.3942 122.206L68.3948 122.326C68.5724 140.078 75.8163 173.409 107.732 188.81L112.947 178.003ZM80.3945 122.266C80.3945 120.714 81.4196 119.067 83.4281 118.154L78.4625 107.229C73.0804 109.676 68.3945 115.083 68.3945 122.266H80.3945ZM83.2946 118.212L114.873 104.775L110.174 93.733L78.596 107.17L83.2946 118.212ZM113.979 105.075C114.291 104.997 114.591 104.907 114.758 104.858C114.965 104.797 115.068 104.766 115.163 104.741C115.249 104.719 115.259 104.719 115.222 104.725C115.183 104.732 115.06 104.75 114.875 104.75V92.75C113.699 92.75 112.702 92.9805 112.109 93.1365C111.805 93.2165 111.52 93.3017 111.354 93.3507C111.26 93.3788 111.197 93.3971 111.143 93.4125C111.118 93.4196 111.1 93.4247 111.087 93.4282C111.073 93.4317 111.068 93.4332 111.068 93.4331L113.979 105.075ZM114.875 104.75C114.564 104.75 114.357 104.713 114.31 104.704C114.255 104.694 114.259 104.692 114.361 104.72C114.473 104.751 114.579 104.784 114.804 104.851C114.988 104.906 115.286 104.995 115.603 105.075L118.514 93.4331C118.514 93.4332 118.509 93.4318 118.497 93.4286C118.485 93.4253 118.468 93.4206 118.445 93.4141C118.397 93.4003 118.337 93.3828 118.253 93.3574C118.111 93.3147 117.838 93.2316 117.573 93.1579C117.112 93.03 116.074 92.75 114.875 92.75V104.75ZM114.709 104.775L146.287 118.212L150.986 107.17L119.408 93.733L114.709 104.775ZM86.9922 142.375H114.875V130.375H86.9922V142.375ZM120.875 136.375V110.004H108.875V136.375H120.875ZM112.523 104.484L82.9603 117.082L87.6647 128.121L117.227 115.524L112.523 104.484ZM79.3125 122.602C79.3125 127.116 79.8747 132.276 81.1491 137.738L92.8352 135.012C91.7581 130.396 91.3125 126.15 91.3125 122.602H79.3125ZM142.59 130.375H114.875V142.375H142.59V130.375ZM108.875 136.375V173.496H120.875V136.375H108.875ZM117.471 178.905C136.486 169.778 145.181 152.372 148.447 137.677L136.733 135.073C133.951 147.589 126.857 161.089 112.279 168.087L117.471 178.905Z" fill="white" mask="url(#path-2-outside-1_8470_106921)"/>
</svg>
